<svg version="1.1" id="Layer_1" xmlns="http://www.w3.org/2000/svg" xmlns:xlink="http://www.w3.org/1999/xlink" x="0px" y="0px"
	 width="100%" viewBox="0 0 800 800" enable-background="new 0 0 800 800" xml:space="preserve">
<path fill="#17191D" opacity="1.000000" stroke="none" 
	d="
M469.000000,801.000000 
	C312.666656,801.000000 156.833328,801.000000 1.000000,801.000000 
	C1.000000,534.333313 1.000000,267.666656 1.000000,1.000000 
	C267.666656,1.000000 534.333313,1.000000 801.000000,1.000000 
	C801.000000,267.666656 801.000000,534.333313 801.000000,801.000000 
	C690.500000,801.000000 580.000000,801.000000 469.000000,801.000000 
M170.651901,305.820404 
	C178.881287,326.599274 194.358261,338.515869 216.402313,339.714081 
	C251.957733,341.646698 277.912140,309.300598 269.647461,274.651642 
	C261.799286,241.748932 223.871002,224.736725 194.714844,241.479187 
	C171.739105,254.672668 162.190033,280.954285 170.651901,305.820404 
M392.234039,361.857941 
	C393.460175,359.496857 394.719269,357.152222 395.906586,354.771790 
	C400.496338,345.569885 394.152405,335.023560 383.903839,334.762238 
	C376.635742,334.576965 372.208191,338.504852 369.152313,344.656525 
	C361.318390,360.426697 353.441589,376.175812 345.527893,391.906158 
	C329.402985,423.958160 313.198212,455.970123 297.127106,488.049042 
	C292.994629,496.297668 295.696655,505.325928 303.043518,509.053589 
	C310.233185,512.701538 318.556793,509.287170 322.766754,500.868500 
	C345.823883,454.761047 368.859375,408.642700 392.234039,361.857941 
M531.219177,408.676941 
	C531.219177,405.559967 531.219177,402.442963 531.219177,399.350952 
	C492.526611,399.350952 454.291962,399.350952 416.002930,399.350952 
	C416.002930,408.007568 416.002930,416.389343 416.002930,424.740173 
	C454.474457,424.740173 492.567261,424.740173 531.217651,424.740173 
	C531.217651,419.534882 531.217651,414.584320 531.219177,408.676941 
M428.515869,447.144745 
	C424.386597,447.144745 420.257324,447.144745 415.952209,447.144745 
	C415.952209,455.898773 415.952209,464.309265 415.952209,472.687500 
	C454.450073,472.687500 492.646484,472.687500 530.987183,472.687500 
	C530.987183,464.118195 530.987183,455.883759 530.987183,447.144470 
	C496.981018,447.144470 463.245483,447.144470 428.515869,447.144745 
z"/>
<path fill="#FBFCFC" opacity="1.000000" stroke="none" 
	d="
M170.485474,305.462219 
	C162.190033,280.954285 171.739105,254.672668 194.714844,241.479187 
	C223.871002,224.736725 261.799286,241.748932 269.647461,274.651642 
	C277.912140,309.300598 251.957733,341.646698 216.402313,339.714081 
	C194.358261,338.515869 178.881287,326.599274 170.485474,305.462219 
z"/>
<path fill="#F9FAFA" opacity="1.000000" stroke="none" 
	d="
M392.068146,362.193024 
	C368.859375,408.642700 345.823883,454.761047 322.766754,500.868500 
	C318.556793,509.287170 310.233185,512.701538 303.043518,509.053589 
	C295.696655,505.325928 292.994629,496.297668 297.127106,488.049042 
	C313.198212,455.970123 329.402985,423.958160 345.527893,391.906158 
	C353.441589,376.175812 361.318390,360.426697 369.152313,344.656525 
	C372.208191,338.504852 376.635742,334.576965 383.903839,334.762238 
	C394.152405,335.023560 400.496338,345.569885 395.906586,354.771790 
	C394.719269,357.152222 393.460175,359.496857 392.068146,362.193024 
z"/>
<path fill="#FAFBFB" opacity="1.000000" stroke="none" 
	d="
M531.218384,409.155334 
	C531.217651,414.584320 531.217651,419.534882 531.217651,424.740173 
	C492.567261,424.740173 454.474457,424.740173 416.002930,424.740173 
	C416.002930,416.389343 416.002930,408.007568 416.002930,399.350952 
	C454.291962,399.350952 492.526611,399.350952 531.219177,399.350952 
	C531.219177,402.442963 531.219177,405.559967 531.218384,409.155334 
z"/>
<path fill="#F9FAFA" opacity="1.000000" stroke="none" 
	d="
M429.012909,447.144592 
	C463.245483,447.144470 496.981018,447.144470 530.987183,447.144470 
	C530.987183,455.883759 530.987183,464.118195 530.987183,472.687500 
	C492.646484,472.687500 454.450073,472.687500 415.952209,472.687500 
	C415.952209,464.309265 415.952209,455.898773 415.952209,447.144745 
	C420.257324,447.144745 424.386597,447.144745 429.012909,447.144592 
z"/>
</svg>