<svg xmlns="http://www.w3.org/2000/svg" id="Cypress-Icon--Streamline-Svg-Logos" width="24" height="24" fill="none" viewBox="0 0 96 96"><desc>Cypress Icon Streamline Icon: https://streamlinehq.com</desc><path fill="url(#a)" d="m53.012 83.23-1.591 3.864a2.12 2.12 0 0 1-1.853 1.319c-.538.02-1.08.035-1.627.035-18.736-.01-35.312-13.26-39.42-31.518l-6.377 1.444c2.304 10.241 8.09 19.536 16.29 26.179A47.06 47.06 0 0 0 47.87 95h.096q.94-.001 1.873-.04c3.354-.141 6.352-2.25 7.633-5.375l2.079-5.052z"/><path fill="url(#b)" d="M2.667 60.453A47.2 47.2 0 0 1 1 48.003C1 28.729 13.067 11.105 31.03 4.156l2.354 6.114C17.923 16.253 7.538 31.416 7.538 48.003c0 3.638.482 7.241 1.431 10.714z"/><path fill="url(#c)" d="M83.872 29.383c-6.99-13.462-20.75-21.826-35.9-21.826a40.2 40.2 0 0 0-15.497 3.075L29.97 4.578A46.7 46.7 0 0 1 47.972 1c17.6 0 33.58 9.713 41.7 25.353z"/><path fill="#09293f" d="M33.947 38.305c3.791 0 6.88 2.028 8.466 5.566l.126.277 6.367-2.17-.135-.326c-2.466-6.024-8.145-9.768-14.824-9.768-4.695 0-8.512 1.51-11.665 4.61-3.134 3.08-4.72 6.954-4.72 11.518 0 4.525 1.586 8.38 4.72 11.46 3.153 3.1 6.97 4.609 11.665 4.609 6.679 0 12.358-3.744 14.824-9.763l.135-.327-6.377-2.174-.12.287c-1.422 3.477-4.585 5.556-8.462 5.556-2.641 0-4.87-.926-6.639-2.748-1.787-1.847-2.691-4.167-2.691-6.894 0-2.748.884-5.023 2.691-6.955 1.763-1.832 3.998-2.758 6.639-2.758"/><path fill="#09293f" d="M73.829 32.478 64.755 55.51 55.62 32.477h-7.472l12.81 31.438-9.114 22.173 6.533 1.303 22.512-54.913z"/><path fill="url(#d)" d="M89.672 26.353C92.977 32.793 95 40.357 95 48.099c0 18.066-10.16 33.75-25.062 41.618l-3.22-5.709C79.64 77.27 88.467 63.719 88.467 48.1a40.1 40.1 0 0 0-4.594-18.716z"/><defs><linearGradient id="a" x1="364.95" x2="4852.62" y1="1733.09" y2="2931.33" gradientUnits="userSpaceOnUse"><stop stop-color="#315c55"/><stop offset="1" stop-color="#09293f"/></linearGradient><linearGradient id="b" x1="1759.39" x2="1341.74" y1="1538.94" y2="5605.29" gradientUnits="userSpaceOnUse"><stop stop-color="#4fb38d"/><stop offset="1" stop-color="#315c55"/></linearGradient><linearGradient id="c" x1="860.36" x2="4172.52" y1="1420.14" y2="2027.28" gradientUnits="userSpaceOnUse"><stop stop-color="#4fb38d"/><stop offset="1" stop-color="#97dec0"/></linearGradient><linearGradient id="d" x1="1589.93" x2="-216.115" y1="1983.82" y2="5365.35" gradientUnits="userSpaceOnUse"><stop stop-color="#97dec0"/><stop offset="1" stop-color="ivory" stop-opacity="0"/></linearGradient></defs></svg>